<?xml version="1.0" encoding="utf-8" standalone="no"?>
<!DOCTYPE svg PUBLIC "-//W3C//DTD SVG 1.1//EN"
  "http://www.w3.org/Graphics/SVG/1.1/DTD/svg11.dtd">
<svg xmlns:xlink="http://www.w3.org/1999/xlink" width="960pt" height="960pt" viewBox="0 0 960 960" xmlns="http://www.w3.org/2000/svg" version="1.1">
 <metadata>
  <rdf:RDF xmlns:dc="http://purl.org/dc/elements/1.1/" xmlns:cc="http://creativecommons.org/ns#" xmlns:rdf="http://www.w3.org/1999/02/22-rdf-syntax-ns#">
   <cc:Work>
    <dc:type rdf:resource="http://purl.org/dc/dcmitype/StillImage"/>
    <dc:date>2026-09-13T11:51:00.929233</dc:date>
    <dc:format>image/svg+xml</dc:format>
    <dc:creator>
     <cc:Agent>
      <dc:title>Matplotlib v3.10.1, https://matplotlib.org/</dc:title>
     </cc:Agent>
    </dc:creator>
   </cc:Work>
  </rdf:RDF>
 </metadata>
 <defs>
  <style type="text/css">*{stroke-linejoin: round; stroke-linecap: butt}</style>
 </defs>
 <g id="figure_1">
  <g id="patch_1">
   <path d="M 0 960 
L 960 960 
L 960 0 
L 0 0 
z
" style="fill: #ffffff"/>
  </g>
  <g id="axes_1">
   <g id="patch_2">
    <path d="M 196.363636 916.363636 
L 763.636364 916.363636 
Q 916.363636 916.363636 916.363636 763.636364 
L 916.363636 196.363636 
Q 916.363636 43.636364 763.636364 43.636364 
L 196.363636 43.636364 
Q 43.636364 43.636364 43.636364 196.363636 
L 43.636364 763.636364 
Q 43.636364 916.363636 196.363636 916.363636 
L 196.363636 916.363636 
z
" clip-path="url(#p0b2920f090)" style="fill: none; stroke: #000000; stroke-linejoin: miter"/>
   </g>
   <g id="patch_3">
    <path d="M 196.195862 894.259561 
L 763.804138 894.259561 
Q 908.794984 894.259561 908.794984 749.268715 
L 908.794984 210.731285 
Q 908.794984 65.740439 763.804138 65.740439 
L 196.195862 65.740439 
Q 51.205016 65.740439 51.205016 210.731285 
L 51.205016 749.268715 
Q 51.205016 894.259561 196.195862 894.259561 
L 196.195862 894.259561 
z
" clip-path="url(#p0b2920f090)" style="fill: none; stroke: #000000; stroke-width: 0.986207; stroke-linejoin: miter"/>
   </g>
   <g id="patch_4">
    <path d="M 196.718746 872.667085 
L 763.281254 872.667085 
Q 900.714734 872.667085 900.714734 735.233605 
L 900.714734 224.766395 
Q 900.714734 87.332915 763.281254 87.332915 
L 196.718746 87.332915 
Q 59.285266 87.332915 59.285266 224.766395 
L 59.285266 735.233605 
Q 59.285266 872.667085 196.718746 872.667085 
L 196.718746 872.667085 
z
" clip-path="url(#p0b2920f090)" style="fill: none; stroke: #000000; stroke-width: 0.972414; stroke-linejoin: miter"/>
   </g>
   <g id="patch_5">
    <path d="M 197.932288 851.586207 
L 762.067712 851.586207 
Q 892.122884 851.586207 892.122884 721.531034 
L 892.122884 238.468966 
Q 892.122884 108.413793 762.067712 108.413793 
L 197.932288 108.413793 
Q 67.877116 108.413793 67.877116 238.468966 
L 67.877116 721.531034 
Q 67.877116 851.586207 197.932288 851.586207 
L 197.932288 851.586207 
z
" clip-path="url(#p0b2920f090)" style="fill: none; stroke: #000000; stroke-width: 0.958621; stroke-linejoin: miter"/>
   </g>
   <g id="patch_6">
    <path d="M 199.836489 831.016928 
L 760.163511 831.016928 
Q 883.019436 831.016928 883.019436 708.161003 
L 883.019436 251.838997 
Q 883.019436 128.983072 760.163511 128.983072 
L 199.836489 128.983072 
Q 76.980564 128.983072 76.980564 251.838997 
L 76.980564 708.161003 
Q 76.980564 831.016928 199.836489 831.016928 
L 199.836489 831.016928 
z
" clip-path="url(#p0b2920f090)" style="fill: none; stroke: #000000; stroke-width: 0.944828; stroke-linejoin: miter"/>
   </g>
   <g id="patch_7">
    <path d="M 202.431348 810.959248 
L 757.568652 810.959248 
Q 873.404389 810.959248 873.404389 695.123511 
L 873.404389 264.876489 
Q 873.404389 149.040752 757.568652 149.040752 
L 202.431348 149.040752 
Q 86.595611 149.040752 86.595611 264.876489 
L 86.595611 695.123511 
Q 86.595611 810.959248 202.431348 810.959248 
L 202.431348 810.959248 
z
" clip-path="url(#p0b2920f090)" style="fill: none; stroke: #000000; stroke-width: 0.931034; stroke-linejoin: miter"/>
   </g>
   <g id="patch_8">
    <path d="M 205.716865 791.413166 
L 754.283135 791.413166 
Q 863.277743 791.413166 863.277743 682.418558 
L 863.277743 277.581442 
Q 863.277743 168.586834 754.283135 168.586834 
L 205.716865 168.586834 
Q 96.722257 168.586834 96.722257 277.581442 
L 96.722257 682.418558 
Q 96.722257 791.413166 205.716865 791.413166 
L 205.716865 791.413166 
z
" clip-path="url(#p0b2920f090)" style="fill: none; stroke: #000000; stroke-width: 0.917241; stroke-linejoin: miter"/>
   </g>
   <g id="patch_9">
    <path d="M 209.693041 772.378683 
L 750.306959 772.378683 
Q 852.639498 772.378683 852.639498 670.046144 
L 852.639498 289.953856 
Q 852.639498 187.621317 750.306959 187.621317 
L 209.693041 187.621317 
Q 107.360502 187.621317 107.360502 289.953856 
L 107.360502 670.046144 
Q 107.360502 772.378683 209.693041 772.378683 
L 209.693041 772.378683 
z
" clip-path="url(#p0b2920f090)" style="fill: none; stroke: #000000; stroke-width: 0.903448; stroke-linejoin: miter"/>
   </g>
   <g id="patch_10">
    <path d="M 214.359875 753.855799 
L 745.640125 753.855799 
Q 841.489655 753.855799 841.489655 658.00627 
L 841.489655 301.99373 
Q 841.489655 206.144201 745.640125 206.144201 
L 214.359875 206.144201 
Q 118.510345 206.144201 118.510345 301.99373 
L 118.510345 658.00627 
Q 118.510345 753.855799 214.359875 753.855799 
L 214.359875 753.855799 
z
" clip-path="url(#p0b2920f090)" style="fill: none; stroke: #000000; stroke-width: 0.889655; stroke-linejoin: miter"/>
   </g>
   <g id="patch_11">
    <path d="M 219.717367 735.844514 
L 740.282633 735.844514 
Q 829.828213 735.844514 829.828213 646.298934 
L 829.828213 313.701066 
Q 829.828213 224.155486 740.282633 224.155486 
L 219.717367 224.155486 
Q 130.171787 224.155486 130.171787 313.701066 
L 130.171787 646.298934 
Q 130.171787 735.844514 219.717367 735.844514 
L 219.717367 735.844514 
z
" clip-path="url(#p0b2920f090)" style="fill: none; stroke: #000000; stroke-width: 0.875862; stroke-linejoin: miter"/>
   </g>
   <g id="patch_12">
    <path d="M 225.765517 718.344828 
L 734.234483 718.344828 
Q 817.655172 718.344828 817.655172 634.924138 
L 817.655172 325.075862 
Q 817.655172 241.655172 734.234483 241.655172 
L 225.765517 241.655172 
Q 142.344828 241.655172 142.344828 325.075862 
L 142.344828 634.924138 
Q 142.344828 718.344828 225.765517 718.344828 
L 225.765517 718.344828 
z
" clip-path="url(#p0b2920f090)" style="fill: none; stroke: #000000; stroke-width: 0.862069; stroke-linejoin: miter"/>
   </g>
   <g id="patch_13">
    <path d="M 232.504326 701.35674 
L 727.495674 701.35674 
Q 804.970533 701.35674 804.970533 623.881881 
L 804.970533 336.118119 
Q 804.970533 258.64326 727.495674 258.64326 
L 232.504326 258.64326 
Q 155.029467 258.64326 155.029467 336.118119 
L 155.029467 623.881881 
Q 155.029467 701.35674 232.504326 701.35674 
L 232.504326 701.35674 
z
" clip-path="url(#p0b2920f090)" style="fill: none; stroke: #000000; stroke-width: 0.848276; stroke-linejoin: miter"/>
   </g>
   <g id="patch_14">
    <path d="M 239.933793 684.880251 
L 720.066207 684.880251 
Q 791.774295 684.880251 791.774295 613.172163 
L 791.774295 346.827837 
Q 791.774295 275.119749 720.066207 275.119749 
L 239.933793 275.119749 
Q 168.225705 275.119749 168.225705 346.827837 
L 168.225705 613.172163 
Q 168.225705 684.880251 239.933793 684.880251 
L 239.933793 684.880251 
z
" clip-path="url(#p0b2920f090)" style="fill: none; stroke: #000000; stroke-width: 0.834483; stroke-linejoin: miter"/>
   </g>
   <g id="patch_15">
    <path d="M 248.053918 668.915361 
L 711.946082 668.915361 
Q 778.066458 668.915361 778.066458 602.794984 
L 778.066458 357.205016 
Q 778.066458 291.084639 711.946082 291.084639 
L 248.053918 291.084639 
Q 181.933542 291.084639 181.933542 357.205016 
L 181.933542 602.794984 
Q 181.933542 668.915361 248.053918 668.915361 
L 248.053918 668.915361 
z
" clip-path="url(#p0b2920f090)" style="fill: none; stroke: #000000; stroke-width: 0.82069; stroke-linejoin: miter"/>
   </g>
   <g id="patch_16">
    <path d="M 256.864702 653.462069 
L 703.135298 653.462069 
Q 763.847022 653.462069 763.847022 592.750345 
L 763.847022 367.249655 
Q 763.847022 306.537931 703.135298 306.537931 
L 256.864702 306.537931 
Q 196.152978 306.537931 196.152978 367.249655 
L 196.152978 592.750345 
Q 196.152978 653.462069 256.864702 653.462069 
L 256.864702 653.462069 
z
" clip-path="url(#p0b2920f090)" style="fill: none; stroke: #000000; stroke-width: 0.806897; stroke-linejoin: miter"/>
   </g>
   <g id="patch_17">
    <path d="M 266.366144 638.520376 
L 693.633856 638.520376 
Q 749.115987 638.520376 749.115987 583.038245 
L 749.115987 376.961755 
Q 749.115987 321.479624 693.633856 321.479624 
L 266.366144 321.479624 
Q 210.884013 321.479624 210.884013 376.961755 
L 210.884013 583.038245 
Q 210.884013 638.520376 266.366144 638.520376 
L 266.366144 638.520376 
z
" clip-path="url(#p0b2920f090)" style="fill: none; stroke: #000000; stroke-width: 0.793103; stroke-linejoin: miter"/>
   </g>
   <g id="patch_18">
    <path d="M 276.558245 624.090282 
L 683.441755 624.090282 
Q 733.873354 624.090282 733.873354 573.658683 
L 733.873354 386.341317 
Q 733.873354 335.909718 683.441755 335.909718 
L 276.558245 335.909718 
Q 226.126646 335.909718 226.126646 386.341317 
L 226.126646 573.658683 
Q 226.126646 624.090282 276.558245 624.090282 
L 276.558245 624.090282 
z
" clip-path="url(#p0b2920f090)" style="fill: none; stroke: #000000; stroke-width: 0.77931; stroke-linejoin: miter"/>
   </g>
   <g id="patch_19">
    <path d="M 287.441003 610.171787 
L 672.558997 610.171787 
Q 718.119122 610.171787 718.119122 564.611661 
L 718.119122 395.388339 
Q 718.119122 349.828213 672.558997 349.828213 
L 287.441003 349.828213 
Q 241.880878 349.828213 241.880878 395.388339 
L 241.880878 564.611661 
Q 241.880878 610.171787 287.441003 610.171787 
L 287.441003 610.171787 
z
" clip-path="url(#p0b2920f090)" style="fill: none; stroke: #000000; stroke-width: 0.765517; stroke-linejoin: miter"/>
   </g>
   <g id="patch_20">
    <path d="M 299.01442 596.76489 
L 660.98558 596.76489 
Q 701.853292 596.76489 701.853292 555.897179 
L 701.853292 404.102821 
Q 701.853292 363.23511 660.98558 363.23511 
L 299.01442 363.23511 
Q 258.146708 363.23511 258.146708 404.102821 
L 258.146708 555.897179 
Q 258.146708 596.76489 299.01442 596.76489 
L 299.01442 596.76489 
z
" clip-path="url(#p0b2920f090)" style="fill: none; stroke: #000000; stroke-width: 0.751724; stroke-linejoin: miter"/>
   </g>
   <g id="patch_21">
    <path d="M 311.278495 583.869592 
L 648.721505 583.869592 
Q 685.075862 583.869592 685.075862 547.515235 
L 685.075862 412.484765 
Q 685.075862 376.130408 648.721505 376.130408 
L 311.278495 376.130408 
Q 274.924138 376.130408 274.924138 412.484765 
L 274.924138 547.515235 
Q 274.924138 583.869592 311.278495 583.869592 
L 311.278495 583.869592 
z
" clip-path="url(#p0b2920f090)" style="fill: none; stroke: #000000; stroke-width: 0.737931; stroke-linejoin: miter"/>
   </g>
   <g id="patch_22">
    <path d="M 324.233229 571.485893 
L 635.766771 571.485893 
Q 667.786834 571.485893 667.786834 539.465831 
L 667.786834 420.534169 
Q 667.786834 388.514107 635.766771 388.514107 
L 324.233229 388.514107 
Q 292.213166 388.514107 292.213166 420.534169 
L 292.213166 539.465831 
Q 292.213166 571.485893 324.233229 571.485893 
L 324.233229 571.485893 
z
" clip-path="url(#p0b2920f090)" style="fill: none; stroke: #000000; stroke-width: 0.724138; stroke-linejoin: miter"/>
   </g>
   <g id="patch_23">
    <path d="M 337.878621 559.613793 
L 622.121379 559.613793 
Q 649.986207 559.613793 649.986207 531.748966 
L 649.986207 428.251034 
Q 649.986207 400.386207 622.121379 400.386207 
L 337.878621 400.386207 
Q 310.013793 400.386207 310.013793 428.251034 
L 310.013793 531.748966 
Q 310.013793 559.613793 337.878621 559.613793 
L 337.878621 559.613793 
z
" clip-path="url(#p0b2920f090)" style="fill: none; stroke: #000000; stroke-width: 0.710345; stroke-linejoin: miter"/>
   </g>
   <g id="patch_24">
    <path d="M 352.214671 548.253292 
L 607.785329 548.253292 
Q 631.673981 548.253292 631.673981 524.364639 
L 631.673981 435.635361 
Q 631.673981 411.746708 607.785329 411.746708 
L 352.214671 411.746708 
Q 328.326019 411.746708 328.326019 435.635361 
L 328.326019 524.364639 
Q 328.326019 548.253292 352.214671 548.253292 
L 352.214671 548.253292 
z
" clip-path="url(#p0b2920f090)" style="fill: none; stroke: #000000; stroke-width: 0.696552; stroke-linejoin: miter"/>
   </g>
   <g id="patch_25">
    <path d="M 367.241379 537.404389 
L 592.758621 537.404389 
Q 612.850157 537.404389 612.850157 517.312853 
L 612.850157 442.687147 
Q 612.850157 422.595611 592.758621 422.595611 
L 367.241379 422.595611 
Q 347.149843 422.595611 347.149843 442.687147 
L 347.149843 517.312853 
Q 347.149843 537.404389 367.241379 537.404389 
L 367.241379 537.404389 
z
" clip-path="url(#p0b2920f090)" style="fill: none; stroke: #000000; stroke-width: 0.682759; stroke-linejoin: miter"/>
   </g>
   <g id="patch_26">
    <path d="M 382.958746 527.067085 
L 577.041254 527.067085 
Q 593.514734 527.067085 593.514734 510.593605 
L 593.514734 449.406395 
Q 593.514734 432.932915 577.041254 432.932915 
L 382.958746 432.932915 
Q 366.485266 432.932915 366.485266 449.406395 
L 366.485266 510.593605 
Q 366.485266 527.067085 382.958746 527.067085 
L 382.958746 527.067085 
z
" clip-path="url(#p0b2920f090)" style="fill: none; stroke: #000000; stroke-width: 0.668966; stroke-linejoin: miter"/>
   </g>
   <g id="patch_27">
    <path d="M 399.366771 517.241379 
L 560.633229 517.241379 
Q 573.667712 517.241379 573.667712 504.206897 
L 573.667712 455.793103 
Q 573.667712 442.758621 560.633229 442.758621 
L 399.366771 442.758621 
Q 386.332288 442.758621 386.332288 455.793103 
L 386.332288 504.206897 
Q 386.332288 517.241379 399.366771 517.241379 
L 399.366771 517.241379 
z
" clip-path="url(#p0b2920f090)" style="fill: none; stroke: #000000; stroke-width: 0.655172; stroke-linejoin: miter"/>
   </g>
   <g id="patch_28">
    <path d="M 416.465455 507.927273 
L 543.534545 507.927273 
Q 553.309091 507.927273 553.309091 498.152727 
L 553.309091 461.847273 
Q 553.309091 452.072727 543.534545 452.072727 
L 416.465455 452.072727 
Q 406.690909 452.072727 406.690909 461.847273 
L 406.690909 498.152727 
Q 406.690909 507.927273 416.465455 507.927273 
L 416.465455 507.927273 
z
" clip-path="url(#p0b2920f090)" style="fill: none; stroke: #000000; stroke-width: 0.641379; stroke-linejoin: miter"/>
   </g>
   <g id="patch_29">
    <path d="M 434.254796 499.124765 
L 525.745204 499.124765 
Q 532.438871 499.124765 532.438871 492.431097 
L 532.438871 467.568903 
Q 532.438871 460.875235 525.745204 460.875235 
L 434.254796 460.875235 
Q 427.561129 460.875235 427.561129 467.568903 
L 427.561129 492.431097 
Q 427.561129 499.124765 434.254796 499.124765 
L 434.254796 499.124765 
z
" clip-path="url(#p0b2920f090)" style="fill: none; stroke: #000000; stroke-width: 0.627586; stroke-linejoin: miter"/>
   </g>
   <g id="patch_30">
    <path d="M 452.734796 490.833856 
L 507.265204 490.833856 
Q 511.057053 490.833856 511.057053 487.042006 
L 511.057053 472.957994 
Q 511.057053 469.166144 507.265204 469.166144 
L 452.734796 469.166144 
Q 448.942947 469.166144 448.942947 472.957994 
L 448.942947 487.042006 
Q 448.942947 490.833856 452.734796 490.833856 
L 452.734796 490.833856 
z
" clip-path="url(#p0b2920f090)" style="fill: none; stroke: #000000; stroke-width: 0.613793; stroke-linejoin: miter"/>
   </g>
  </g>
 </g>
 <defs>
  <clipPath id="p0b2920f090">
   <rect x="0" y="0" width="960" height="960"/>
  </clipPath>
 </defs>
</svg>
