<?xml version="1.0" encoding="utf-8" standalone="no"?>
<!DOCTYPE svg PUBLIC "-//W3C//DTD SVG 1.1//EN"
  "http://www.w3.org/Graphics/SVG/1.1/DTD/svg11.dtd">
<svg xmlns:xlink="http://www.w3.org/1999/xlink" width="960pt" height="960pt" viewBox="0 0 960 960" xmlns="http://www.w3.org/2000/svg" version="1.1">
 <metadata>
  <rdf:RDF xmlns:dc="http://purl.org/dc/elements/1.1/" xmlns:cc="http://creativecommons.org/ns#" xmlns:rdf="http://www.w3.org/1999/02/22-rdf-syntax-ns#">
   <cc:Work>
    <dc:type rdf:resource="http://purl.org/dc/dcmitype/StillImage"/>
    <dc:date>2026-09-13T12:10:00.143480</dc:date>
    <dc:format>image/svg+xml</dc:format>
    <dc:creator>
     <cc:Agent>
      <dc:title>Matplotlib v3.10.1, https://matplotlib.org/</dc:title>
     </cc:Agent>
    </dc:creator>
   </cc:Work>
  </rdf:RDF>
 </metadata>
 <defs>
  <style type="text/css">*{stroke-linejoin: round; stroke-linecap: butt}</style>
 </defs>
 <g id="figure_1">
  <g id="patch_1">
   <path d="M 0 960 
L 960 960 
L 960 0 
L 0 0 
z
" style="fill: #ffffff"/>
  </g>
  <g id="axes_1">
   <g id="patch_2">
    <path d="M 235.636364 916.363636 
L 724.363636 916.363636 
Q 916.363636 916.363636 916.363636 724.363636 
L 916.363636 235.636364 
Q 916.363636 43.636364 724.363636 43.636364 
L 235.636364 43.636364 
Q 43.636364 43.636364 43.636364 235.636364 
L 43.636364 724.363636 
Q 43.636364 916.363636 235.636364 916.363636 
L 235.636364 916.363636 
z
" clip-path="url(#p8cddbbc654)" style="fill: none; stroke: #000000; stroke-width: 0.95; stroke-linejoin: miter"/>
   </g>
   <g id="patch_3">
    <path d="M 266.329266 913.303763 
L 737.7928 888.595406 
Q 923.010617 878.888551 913.303763 693.670734 
L 888.595406 222.2072 
Q 878.888551 36.989383 693.670734 46.696237 
L 222.2072 71.404594 
Q 36.989383 81.111449 46.696237 266.329266 
L 71.404594 737.7928 
Q 81.111449 923.010617 266.329266 913.303763 
L 266.329266 913.303763 
z
" clip-path="url(#p8cddbbc654)" style="fill: none; stroke: #000000; stroke-width: 0.937931; stroke-linejoin: miter"/>
   </g>
   <g id="patch_4">
    <path d="M 296.011488 908.269048 
L 749.010063 860.656979 
Q 926.973789 841.952238 908.269048 663.988512 
L 860.656979 210.989937 
Q 841.952238 33.026211 663.988512 51.730952 
L 210.989937 99.343021 
Q 33.026211 118.047762 51.730952 296.011488 
L 99.343021 749.010063 
Q 118.047762 926.973789 296.011488 908.269048 
L 296.011488 908.269048 
z
" clip-path="url(#p8cddbbc654)" style="fill: none; stroke: #000000; stroke-width: 0.925862; stroke-linejoin: miter"/>
   </g>
   <g id="patch_5">
    <path d="M 324.562663 901.357917 
L 758.036449 832.702414 
Q 928.329722 805.73061 901.357917 635.437337 
L 832.702414 201.963551 
Q 805.73061 31.670278 635.437337 58.642083 
L 201.963551 127.297586 
Q 31.670278 154.26939 58.642083 324.562663 
L 127.297586 758.036449 
Q 154.26939 928.329722 324.562663 901.357917 
L 324.562663 901.357917 
z
" clip-path="url(#p8cddbbc654)" style="fill: none; stroke: #000000; stroke-width: 0.913793; stroke-linejoin: miter"/>
   </g>
   <g id="patch_6">
    <path d="M 351.870007 892.675863 
L 764.902968 804.882997 
Q 927.165918 770.392942 892.675863 608.129993 
L 804.882997 195.097032 
Q 770.392942 32.834082 608.129993 67.324137 
L 195.097032 155.117003 
Q 32.834082 189.607058 67.324137 351.870007 
L 155.117003 764.902968 
Q 189.607058 927.165918 351.870007 892.675863 
L 351.870007 892.675863 
z
" clip-path="url(#p8cddbbc654)" style="fill: none; stroke: #000000; stroke-width: 0.901724; stroke-linejoin: miter"/>
   </g>
   <g id="patch_7">
    <path d="M 377.82872 882.334921 
L 769.650385 777.346623 
Q 923.580324 736.10122 882.334921 582.17128 
L 777.346623 190.349615 
Q 736.10122 36.419676 582.17128 77.665079 
L 190.349615 182.653377 
Q 36.419676 223.89878 77.665079 377.82872 
L 182.653377 769.650385 
Q 223.89878 923.580324 377.82872 882.334921 
L 377.82872 882.334921 
z
" clip-path="url(#p8cddbbc654)" style="fill: none; stroke: #000000; stroke-width: 0.889655; stroke-linejoin: miter"/>
   </g>
   <g id="patch_8">
    <path d="M 402.34236 870.453121 
L 772.328937 750.237195 
Q 917.680806 703.00951 870.453121 557.65764 
L 750.237195 187.671063 
Q 703.00951 42.319194 557.65764 89.546879 
L 187.671063 209.762805 
Q 42.319194 256.99049 89.546879 402.34236 
L 209.762805 772.328937 
Q 256.99049 917.680806 402.34236 870.453121 
L 402.34236 870.453121 
z
" clip-path="url(#p8cddbbc654)" style="fill: none; stroke: #000000; stroke-width: 0.877586; stroke-linejoin: miter"/>
   </g>
   <g id="patch_9">
    <path d="M 425.323173 857.153916 
L 772.998029 723.694042 
Q 909.58458 671.263378 857.153916 534.676827 
L 723.694042 187.001971 
Q 671.263378 50.41542 534.676827 102.846084 
L 187.001971 236.305958 
Q 50.41542 288.736622 102.846084 425.323173 
L 236.305958 772.998029 
Q 288.736622 909.58458 425.323173 857.153916 
L 425.323173 857.153916 
z
" clip-path="url(#p8cddbbc654)" style="fill: none; stroke: #000000; stroke-width: 0.865517; stroke-linejoin: miter"/>
   </g>
   <g id="patch_10">
    <path d="M 446.692392 842.565595 
L 771.725886 697.851359 
Q 899.417616 640.999338 842.565595 513.307608 
L 697.851359 188.274114 
Q 640.999338 60.582384 513.307608 117.434405 
L 188.274114 262.148641 
Q 60.582384 319.000662 117.434405 446.692392 
L 262.148641 771.725886 
Q 319.000662 899.417616 446.692392 842.565595 
L 446.692392 842.565595 
z
" clip-path="url(#p8cddbbc654)" style="fill: none; stroke: #000000; stroke-width: 0.853448; stroke-linejoin: miter"/>
   </g>
   <g id="patch_11">
    <path d="M 466.380494 826.820682 
L 768.58917 672.83767 
Q 887.314008 612.344344 826.820682 493.619506 
L 672.83767 191.41083 
Q 612.344344 72.685992 493.619506 133.179318 
L 191.41083 287.16233 
Q 72.685992 347.655656 133.179318 466.380494 
L 287.16233 768.58917 
Q 347.655656 887.314008 466.380494 826.820682 
L 466.380494 826.820682 
z
" clip-path="url(#p8cddbbc654)" style="fill: none; stroke: #000000; stroke-width: 0.841379; stroke-linejoin: miter"/>
   </g>
   <g id="patch_12">
    <path d="M 484.327423 810.055316 
L 763.672577 648.775316 
Q 873.415316 585.415316 810.055316 475.672577 
L 648.775316 196.327423 
Q 585.415316 86.584684 475.672577 149.944684 
L 196.327423 311.224684 
Q 86.584684 374.584684 149.944684 484.327423 
L 311.224684 763.672577 
Q 374.584684 873.415316 484.327423 810.055316 
L 484.327423 810.055316 
z
" clip-path="url(#p8cddbbc654)" style="fill: none; stroke: #000000; stroke-width: 0.82931; stroke-linejoin: miter"/>
   </g>
   <g id="patch_13">
    <path d="M 500.48277 792.408626 
L 757.068388 625.779978 
Q 857.869881 560.318723 792.408626 459.51723 
L 625.779978 202.931612 
Q 560.318723 102.130119 459.51723 167.591374 
L 202.931612 334.220022 
Q 102.130119 399.681277 167.591374 500.48277 
L 334.220022 757.068388 
Q 399.681277 857.869881 500.48277 792.408626 
L 500.48277 792.408626 
z
" clip-path="url(#p8cddbbc654)" style="fill: none; stroke: #000000; stroke-width: 0.817241; stroke-linejoin: miter"/>
   </g>
   <g id="patch_14">
    <path d="M 514.805915 774.022092 
L 748.876007 603.960215 
Q 840.832115 537.150193 774.022092 445.194085 
L 603.960215 211.123993 
Q 537.150193 119.167885 445.194085 185.977908 
L 211.123993 356.039785 
Q 119.167885 422.849807 185.977908 514.805915 
L 356.039785 748.876007 
Q 422.849807 840.832115 514.805915 774.022092 
L 514.805915 774.022092 
z
" clip-path="url(#p8cddbbc654)" style="fill: none; stroke: #000000; stroke-width: 0.805172; stroke-linejoin: miter"/>
   </g>
   <g id="patch_15">
    <path d="M 527.266127 755.038901 
L 739.201461 583.417052 
Q 822.461771 515.994183 755.038901 432.733873 
L 583.417052 220.798539 
Q 515.994183 137.538229 432.733873 204.961099 
L 220.798539 376.582948 
Q 137.538229 444.005817 204.961099 527.266127 
L 376.582948 739.201461 
Q 444.005817 822.461771 527.266127 755.038901 
L 527.266127 755.038901 
z
" clip-path="url(#p8cddbbc654)" style="fill: none; stroke: #000000; stroke-width: 0.793103; stroke-linejoin: miter"/>
   </g>
   <g id="patch_16">
    <path d="M 537.842627 735.603305 
L 728.156882 564.24358 
Q 802.923197 496.923688 735.603305 422.157373 
L 564.24358 231.843118 
Q 496.923688 157.076803 422.157373 224.396695 
L 231.843118 395.75642 
Q 157.076803 463.076312 224.396695 537.842627 
L 395.75642 728.156882 
Q 463.076312 802.923197 537.842627 735.603305 
L 537.842627 735.603305 
z
" clip-path="url(#p8cddbbc654)" style="fill: none; stroke: #000000; stroke-width: 0.781034; stroke-linejoin: miter"/>
   </g>
   <g id="patch_17">
    <path d="M 546.524606 715.859967 
L 715.859967 546.524606 
Q 782.384573 480 715.859967 413.475394 
L 546.524606 244.140033 
Q 480 177.615427 413.475394 244.140033 
L 244.140033 413.475394 
Q 177.615427 480 244.140033 546.524606 
L 413.475394 715.859967 
Q 480 782.384573 546.524606 715.859967 
L 546.524606 715.859967 
z
" clip-path="url(#p8cddbbc654)" style="fill: none; stroke: #000000; stroke-width: 0.768966; stroke-linejoin: miter"/>
   </g>
   <g id="patch_18">
    <path d="M 553.311207 695.953317 
L 702.43341 530.336332 
Q 761.017133 465.272516 695.953317 406.688793 
L 530.336332 257.56659 
Q 465.272516 198.982867 406.688793 264.046683 
L 257.56659 429.663668 
Q 198.982867 494.727484 264.046683 553.311207 
L 429.663668 702.43341 
Q 494.727484 761.017133 553.311207 695.953317 
L 553.311207 695.953317 
z
" clip-path="url(#p8cddbbc654)" style="fill: none; stroke: #000000; stroke-width: 0.756897; stroke-linejoin: miter"/>
   </g>
   <g id="patch_19">
    <path d="M 558.211462 676.026911 
L 688.00433 515.746068 
Q 738.994386 452.778593 676.026911 401.788538 
L 515.746068 271.99567 
Q 452.778593 221.005614 401.788538 283.973089 
L 271.99567 444.253932 
Q 221.005614 507.221407 283.973089 558.211462 
L 444.253932 688.00433 
Q 507.221407 738.994386 558.211462 676.026911 
L 558.211462 676.026911 
z
" clip-path="url(#p8cddbbc654)" style="fill: none; stroke: #000000; stroke-width: 0.744828; stroke-linejoin: miter"/>
   </g>
   <g id="patch_20">
    <path d="M 561.244195 656.222789 
L 672.703668 502.811985 
Q 716.491319 442.543455 656.222789 398.755805 
L 502.811985 287.296332 
Q 442.543455 243.508681 398.755805 303.777211 
L 287.296332 457.188015 
Q 243.508681 517.456545 303.777211 561.244195 
L 457.188015 672.703668 
Q 517.456545 716.491319 561.244195 656.222789 
L 561.244195 656.222789 
z
" clip-path="url(#p8cddbbc654)" style="fill: none; stroke: #000000; stroke-width: 0.732759; stroke-linejoin: miter"/>
   </g>
   <g id="patch_21">
    <path d="M 562.437879 636.680846 
L 656.665581 491.582908 
Q 693.683607 434.580147 636.680846 397.562121 
L 491.582908 303.334419 
Q 434.580147 266.316393 397.562121 323.319154 
L 303.334419 468.417092 
Q 266.316393 525.419853 323.319154 562.437879 
L 468.417092 656.665581 
Q 525.419853 693.683607 562.437879 636.680846 
L 562.437879 636.680846 
z
" clip-path="url(#p8cddbbc654)" style="fill: none; stroke: #000000; stroke-width: 0.72069; stroke-linejoin: miter"/>
   </g>
   <g id="patch_22">
    <path d="M 561.830456 617.538219 
L 640.02682 482.098144 
Q 670.74682 428.889544 617.538219 398.169544 
L 482.098144 319.97318 
Q 428.889544 289.25318 398.169544 342.461781 
L 319.97318 477.901856 
Q 289.25318 531.110456 342.461781 561.830456 
L 477.901856 640.02682 
Q 531.110456 670.74682 561.830456 617.538219 
L 561.830456 617.538219 
z
" clip-path="url(#p8cddbbc654)" style="fill: none; stroke: #000000; stroke-width: 0.708621; stroke-linejoin: miter"/>
   </g>
   <g id="patch_23">
    <path d="M 559.469126 598.928678 
L 622.926102 474.38735 
Q 647.855629 425.4604 598.928678 400.530874 
L 474.38735 337.073898 
Q 425.4604 312.144371 400.530874 361.071322 
L 337.073898 485.61265 
Q 312.144371 534.5396 361.071322 559.469126 
L 485.61265 622.926102 
Q 534.5396 647.855629 559.469126 598.928678 
L 559.469126 598.928678 
z
" clip-path="url(#p8cddbbc654)" style="fill: none; stroke: #000000; stroke-width: 0.696552; stroke-linejoin: miter"/>
   </g>
   <g id="patch_24">
    <path d="M 555.410086 580.982037 
L 605.503475 468.470443 
Q 625.183021 424.26946 580.982037 404.589914 
L 468.470443 354.496525 
Q 424.26946 334.816979 404.589914 379.017963 
L 354.496525 491.529557 
Q 334.816979 535.73054 379.017963 555.410086 
L 491.529557 605.503475 
Q 535.73054 625.183021 555.410086 580.982037 
L 555.410086 580.982037 
z
" clip-path="url(#p8cddbbc654)" style="fill: none; stroke: #000000; stroke-width: 0.684483; stroke-linejoin: miter"/>
   </g>
   <g id="patch_25">
    <path d="M 549.718243 563.823583 
L 587.899677 464.357548 
Q 602.899526 425.281606 563.823583 410.281757 
L 464.357548 372.100323 
Q 425.281606 357.100474 410.281757 396.176417 
L 372.100323 495.642452 
Q 357.100474 534.718394 396.176417 549.718243 
L 495.642452 587.899677 
Q 534.718394 602.899526 549.718243 563.823583 
L 549.718243 563.823583 
z
" clip-path="url(#p8cddbbc654)" style="fill: none; stroke: #000000; stroke-width: 0.672414; stroke-linejoin: miter"/>
   </g>
   <g id="patch_26">
    <path d="M 542.466889 547.573523 
L 570.255495 462.048988 
Q 581.172448 428.450063 547.573523 417.533111 
L 462.048988 389.744505 
Q 428.450063 378.827552 417.533111 412.426477 
L 389.744505 497.951012 
Q 378.827552 531.549937 412.426477 542.466889 
L 497.951012 570.255495 
Q 531.549937 581.172448 542.466889 547.573523 
L 542.466889 547.573523 
z
" clip-path="url(#p8cddbbc654)" style="fill: none; stroke: #000000; stroke-width: 0.660345; stroke-linejoin: miter"/>
   </g>
   <g id="patch_27">
    <path d="M 533.737341 532.346455 
L 552.71113 461.535311 
Q 560.165119 433.716647 532.346455 426.262659 
L 461.535311 407.28887 
Q 433.716647 399.834881 426.262659 427.653545 
L 407.28887 498.464689 
Q 399.834881 526.283353 427.653545 533.737341 
L 498.464689 552.71113 
Q 526.283353 560.165119 533.737341 532.346455 
L 533.737341 532.346455 
z
" clip-path="url(#p8cddbbc654)" style="fill: none; stroke: #000000; stroke-width: 0.648276; stroke-linejoin: miter"/>
   </g>
   <g id="patch_28">
    <path d="M 523.618551 518.250862 
L 535.405556 462.797362 
Q 540.036165 441.012059 518.250862 436.381449 
L 462.797362 424.594444 
Q 441.012059 419.963835 436.381449 441.749138 
L 424.594444 497.202638 
Q 419.963835 518.987941 441.749138 523.618551 
L 497.202638 535.405556 
Q 518.987941 540.036165 523.618551 518.250862 
L 523.618551 518.250862 
z
" clip-path="url(#p8cddbbc654)" style="fill: none; stroke: #000000; stroke-width: 0.636207; stroke-linejoin: miter"/>
   </g>
   <g id="patch_29">
    <path d="M 512.206679 505.388629 
L 518.47589 465.80639 
Q 520.938794 450.256225 505.388629 447.793321 
L 465.80639 441.52411 
Q 450.256225 439.061206 447.793321 454.611371 
L 441.52411 494.19361 
Q 439.061206 509.743775 454.611371 512.206679 
L 494.19361 518.47589 
Q 509.743775 520.938794 512.206679 505.388629 
L 512.206679 505.388629 
z
" clip-path="url(#p8cddbbc654)" style="fill: none; stroke: #000000; stroke-width: 0.624138; stroke-linejoin: miter"/>
   </g>
   <g id="patch_30">
    <path d="M 499.604651 493.854596 
L 502.056775 470.524197 
Q 503.020109 461.358683 493.854596 460.395349 
L 470.524197 457.943225 
Q 461.358683 456.979891 460.395349 466.145404 
L 457.943225 489.475803 
Q 456.979891 498.641317 466.145404 499.604651 
L 489.475803 502.056775 
Q 498.641317 503.020109 499.604651 493.854596 
L 499.604651 493.854596 
z
" clip-path="url(#p8cddbbc654)" style="fill: none; stroke: #000000; stroke-width: 0.612069; stroke-linejoin: miter"/>
   </g>
  </g>
 </g>
 <defs>
  <clipPath id="p8cddbbc654">
   <rect x="0" y="0" width="960" height="960"/>
  </clipPath>
 </defs>
</svg>
